<!DOCTYPE svg PUBLIC "-//W3C//DTD SVG 20010904//EN" "http://www.w3.org/TR/2001/REC-SVG-20010904/DTD/svg10.dtd">
<svg version="1.0" xmlns="http://www.w3.org/2000/svg" width="880px" height="575px" viewBox="0 0 8800 5750" preserveAspectRatio="xMidYMid meet">
<g id="layer101" fill="#203f2b" stroke="none">
 <path d="M515 4522 c34 -21 350 -188 590 -312 88 -45 192 -99 230 -120 75 -40 236 -124 460 -240 77 -40 148 -80 159 -89 10 -9 20 -15 22 -13 5 3 278 -132 299 -148 12 -9 157 -85 390 -205 94 -48 222 -115 285 -149 l115 -61 1340 0 1340 0 3 23 c2 12 2 22 0 22 -2 0 -55 19 -118 41 -63 23 -133 47 -155 55 -22 7 -71 25 -110 39 -95 36 -383 137 -535 190 -69 23 -143 50 -165 58 -45 18 -297 107 -635 226 -123 43 -346 122 -575 203 -77 28 -151 54 -165 58 -14 5 -77 27 -140 50 -63 23 -155 55 -205 72 -171 57 -360 130 -363 139 -2 5 -7 7 -12 4 -8 -5 -192 53 -200 64 -3 3 -12 7 -20 8 -8 1 -69 15 -135 32 -255 64 -263 64 -1030 68 -685 4 -699 3 -670 -15z"/>
 <path d="M6485 3480 c-588 -3 -1064 -9 -1057 -13 6 -5 83 -33 170 -63 241 -84 266 -102 266 -194 0 -59 -23 -96 -75 -122 -32 -17 -119 -18 -1390 -18 l-1356 0 -321 168 c-177 93 -318 173 -314 177 4 5 1 5 -7 0 -9 -5 -19 -2 -28 10 -7 11 -13 15 -13 11 0 -4 -21 4 -46 19 l-46 27 -247 -5 c-219 -4 -254 -7 -316 -27 -100 -32 -128 -47 -476 -266 -173 -108 -332 -208 -354 -222 -22 -14 -42 -24 -44 -23 -2 2 -7 -1 -10 -6 -3 -5 -38 -31 -78 -56 -101 -66 -167 -137 -211 -226 l-37 -76 -3 -1037 -3 -1038 294 0 c293 0 293 0 343 25 60 30 102 85 132 170 11 34 25 72 31 85 9 22 37 95 131 350 15 41 62 167 104 280 42 113 84 223 92 246 23 65 70 131 115 164 89 64 -59 60 2183 60 1351 0 2087 3 2176 11 330 26 652 96 970 212 156 57 410 174 410 188 0 5 -300 9 -666 9 -367 0 -670 3 -675 6 -5 3 -9 16 -9 30 0 64 370 239 621 292 178 39 240 42 786 42 l536 0 46 37 c56 44 119 111 127 136 3 9 10 14 16 11 6 -4 8 -3 5 2 -3 5 3 34 13 64 12 35 19 83 20 133 0 187 -102 335 -278 400 -82 30 -259 33 -1527 27z m-3760 -831 c146 -78 164 -275 33 -369 -82 -60 -174 -62 -255 -6 -139 95 -122 299 32 379 45 24 141 22 190 -4z m708 -15 c52 -36 97 -119 97 -180 0 -105 -81 -198 -192 -218 -121 -22 -248 91 -248 221 0 38 28 113 42 113 5 0 7 4 4 9 -7 11 18 33 74 66 39 22 54 25 113 22 55 -3 76 -10 110 -33z m641 21 c40 -17 108 -83 100 -97 -3 -4 -1 -8 4 -8 13 0 32 -55 32 -93 0 -38 -20 -107 -32 -107 -4 0 -8 -6 -8 -14 0 -25 -83 -84 -134 -96 -26 -6 -51 -8 -56 -5 -4 3 -24 7 -44 10 -90 11 -166 110 -166 215 0 40 38 127 67 153 61 54 164 72 237 42z m679 6 c40 -16 99 -73 118 -116 27 -58 25 -141 -4 -196 -28 -54 -101 -105 -160 -114 -93 -14 -192 40 -233 128 -31 67 -31 120 1 184 29 57 43 72 100 102 43 23 134 29 178 12z m690 -11 c14 -11 29 -20 34 -20 12 0 43 -36 69 -80 30 -50 31 -132 3 -192 -12 -26 -25 -45 -29 -43 -5 3 -10 -1 -13 -8 -3 -7 -23 -26 -46 -42 -35 -23 -52 -28 -100 -28 -135 0 -225 88 -224 220 1 84 34 142 106 183 66 38 159 42 200 10z"/>
 <path d="M3365 1752 c-16 -10 -129 -69 -250 -132 -121 -62 -256 -132 -300 -155 -44 -23 -152 -81 -240 -127 -88 -47 -200 -106 -250 -131 -161 -82 -215 -112 -215 -120 0 -5 163 -6 363 -4 419 5 481 14 732 111 55 21 491 176 775 276 129 46 314 111 410 145 96 35 218 78 270 96 52 19 94 39 95 44 0 7 -235 11 -680 13 -643 2 -682 1 -710 -16z"/>
 </g>

</svg>