<!DOCTYPE svg PUBLIC "-//W3C//DTD SVG 20010904//EN" "http://www.w3.org/TR/2001/REC-SVG-20010904/DTD/svg10.dtd">
<svg version="1.0" xmlns="http://www.w3.org/2000/svg" width="1600px" height="121px" viewBox="0 0 16000 1210" preserveAspectRatio="xMidYMid meet">
<g id="layer101" fill="#ffffff" stroke="none">
 <path d="M13148 816 c-100 -22 -208 -71 -306 -138 l-73 -49 -117 11 c-64 7 -153 9 -197 5 -293 -24 -491 -97 -678 -249 l-58 -47 -102 50 c-56 27 -129 56 -162 65 -205 52 -189 50 -450 50 -199 0 -264 -4 -318 -17 -94 -23 -111 -22 -150 16 -47 44 -167 103 -252 123 -80 19 -202 14 -295 -11 -58 -16 -67 -19 -145 -57 l-49 -24 -71 24 c-62 22 -87 25 -230 25 -139 0 -169 -3 -225 -22 -91 -31 -166 -67 -232 -114 l-58 -40 -57 21 c-32 11 -76 24 -98 30 -22 6 -58 16 -80 22 -22 7 -107 14 -190 17 -130 4 -160 2 -229 -16 -91 -24 -167 -57 -228 -99 -55 -38 -148 -126 -148 -141 0 -19 -20 -12 -59 18 -96 75 -245 117 -384 108 -96 -7 -146 -19 -261 -61 l-69 -26 -46 28 c-107 63 -197 95 -340 122 -117 22 -322 27 -412 10 -30 -6 -81 -15 -114 -20 -33 -5 -82 -16 -110 -24 -32 -8 -55 -10 -65 -4 -8 5 -28 17 -45 28 -52 34 -178 91 -250 115 -250 81 -508 89 -770 23 -44 -11 -90 -22 -101 -25 -14 -3 -42 9 -81 36 -33 23 -67 41 -75 41 -8 0 -18 4 -24 9 -19 18 -138 41 -215 41 -123 0 -273 -46 -389 -118 l-54 -34 -71 35 c-103 52 -159 67 -245 67 -129 0 -266 -63 -371 -170 -35 -35 -51 -45 -62 -38 -9 4 -44 17 -79 27 -303 89 -652 79 -923 -26 -136 -53 -159 -65 -293 -152 l-82 -54 -43 16 c-56 21 -186 47 -235 47 -90 0 -238 -58 -281 -110 -11 -12 -21 -15 -35 -10 -60 22 -129 40 -196 51 -98 16 -297 16 -383 0 l-67 -13 -53 39 c-68 51 -144 87 -234 108 -89 21 -251 16 -358 -12 l-70 -18 -3 -152 -3 -153 8001 0 8000 0 0 160 c0 94 -4 160 -9 160 -6 0 -22 11 -36 24 -34 31 -124 78 -195 101 -74 24 -251 24 -338 0 l-62 -18 -38 25 c-43 28 -137 72 -197 93 -102 35 -284 65 -389 65 -86 -1 -239 -22 -321 -45 -108 -31 -109 -31 -162 13 -75 61 -145 90 -243 97 -78 6 -184 -3 -220 -19 -9 -4 -26 4 -41 18 -31 29 -142 91 -201 112 -119 43 -282 55 -400 30z"/>
 </g>

</svg>